<svg id="Capa_1" data-name="Capa 1" xmlns="http://www.w3.org/2000/svg" viewBox="0 0 24.83 24.83"><defs><style>.cls-1{fill:#009fe3;}</style></defs><title>icon-twitter</title><path class="cls-1" d="M.35,20a14,14,0,0,0,7.59,2.22A14,14,0,0,0,22,7.49a10,10,0,0,0,2.47-2.56,9.89,9.89,0,0,1-2.84.78A5,5,0,0,0,23.81,3a9.92,9.92,0,0,1-3.14,1.2,5,5,0,0,0-8.44,4.51A14,14,0,0,1,2,3.52a5,5,0,0,0,1.53,6.61,4.93,4.93,0,0,1-2.24-.62,5,5,0,0,0,4,4.92,5,5,0,0,1-2.23.08,5,5,0,0,0,4.62,3.44A10,10,0,0,1,.35,20Z"/></svg>