<svg id="Capa_1" data-name="Capa 1" xmlns="http://www.w3.org/2000/svg" viewBox="0 0 24.83 24.83"><defs><style>.cls-1{fill:#009fe3;}</style></defs><title>icon-instagram</title><path class="cls-1" d="M12.42,2.24c3.31,0,3.71,0,5,.07a6.87,6.87,0,0,1,2.31.43,3.85,3.85,0,0,1,1.43.93,3.85,3.85,0,0,1,.93,1.43,6.87,6.87,0,0,1,.43,2.31c.06,1.31.07,1.7.07,5s0,3.71-.07,5a6.87,6.87,0,0,1-.43,2.31,4.11,4.11,0,0,1-2.36,2.36,6.87,6.87,0,0,1-2.31.43c-1.31.06-1.7.07-5,.07s-3.71,0-5-.07a6.87,6.87,0,0,1-2.31-.43,3.85,3.85,0,0,1-1.43-.93,3.85,3.85,0,0,1-.93-1.43,6.87,6.87,0,0,1-.43-2.31c-.06-1.31-.07-1.7-.07-5s0-3.71.07-5a6.87,6.87,0,0,1,.43-2.31,3.85,3.85,0,0,1,.93-1.43,3.85,3.85,0,0,1,1.43-.93A6.87,6.87,0,0,1,7.4,2.31c1.31-.06,1.7-.07,5-.07m0-2.24C9,0,8.62,0,7.3.07a9.11,9.11,0,0,0-3,.58,6.08,6.08,0,0,0-2.2,1.43A6.09,6.09,0,0,0,.65,4.28a9.11,9.11,0,0,0-.58,3C0,8.62,0,9,0,12.42s0,3.79.07,5.12a9.11,9.11,0,0,0,.58,3,6.09,6.09,0,0,0,1.43,2.2,6.08,6.08,0,0,0,2.2,1.43,9.12,9.12,0,0,0,3,.58c1.32.06,1.75.07,5.12.07s3.79,0,5.12-.07a9.12,9.12,0,0,0,3-.58,6.35,6.35,0,0,0,3.63-3.63,9.11,9.11,0,0,0,.58-3c.06-1.32.07-1.75.07-5.12s0-3.79-.07-5.12a9.11,9.11,0,0,0-.58-3,6.09,6.09,0,0,0-1.43-2.2A6.08,6.08,0,0,0,20.55.65a9.11,9.11,0,0,0-3-.58C16.21,0,15.79,0,12.42,0"/><path class="cls-1" d="M12.42,6a6.38,6.38,0,1,0,6.38,6.38A6.38,6.38,0,0,0,12.42,6m0,10.51a4.14,4.14,0,1,1,4.14-4.14,4.14,4.14,0,0,1-4.14,4.14"/><path class="cls-1" d="M20.53,5.79A1.49,1.49,0,1,1,19,4.3a1.49,1.49,0,0,1,1.49,1.49"/></svg>