<svg xmlns="http://www.w3.org/2000/svg" viewBox="0 0 821.12 183.46"><defs><style>.cls-1{fill:#8be9c5;}.cls-2,.cls-6{fill:#6967bd;}.cls-3{fill:#8b76fa;}.cls-4{fill:#83daa3;}.cls-5{fill:#573b1c;}.cls-6{font-size:48px;font-family:Montserrat-Regular, Montserrat;}.cls-7{letter-spacing:0.01em;}.cls-8{letter-spacing:-0.01em;}</style></defs><title>Recurso 2</title><g id="Capa_2" data-name="Capa 2"><g id="Capa_1-2" data-name="Capa 1"><rect class="cls-1" x="253.53" width="1.45" height="0.96"/><rect class="cls-1" x="337.77" y="95.13" width="0.89" height="0.59" transform="translate(676.42 190.86) rotate(-180)"/><rect class="cls-1" x="291.07" y="36.02" width="0.88" height="0.59"/><polygon class="cls-2" points="101.94 23.38 71.67 23.38 71.67 109.46 132.81 109.46 132.81 87.64 101.94 87.64 101.94 23.38"/><polygon class="cls-2" points="401.28 109.46 371.01 109.46 371.01 23.38 432.16 23.38 432.16 45.19 401.28 45.19 401.28 109.46"/><rect class="cls-2" x="143.1" y="23.38" width="30.29" height="86.08"/><polygon class="cls-2" points="188.04 23.38 188.04 109.46 218.32 109.46 218.32 44.82 237.94 44.82 237.94 109.46 268.23 109.46 268.23 23.38 188.04 23.38"/><polygon class="cls-2" points="523.39 109.46 523.39 23.38 493.11 23.38 493.11 88.01 473.49 88.01 473.49 23.38 443.21 23.38 443.21 109.46 523.39 109.46"/><path class="cls-2" d="M320.12,21.62c-28.35,0-40.91,14.94-40.91,44.29v.33c0,30.55,13.41,45,45.48,45a95.11,95.11,0,0,0,30-4.41L352,88.3a85.35,85.35,0,0,1-21.71,2.9c-17.63,0-23.4-4.53-24.81-17.07H358.1V60.65C358.1,34.69,345.4,21.62,320.12,21.62Zm.32,20.19c9.07,0,12.67,5.59,12.88,16.92h-28C306.31,47,310.79,41.81,320.44,41.81Z"/><polygon class="cls-2" points="0 120.5 0 150.81 30.29 150.81 30.29 181.1 60.6 181.1 60.6 120.49 0 120.5"/><path class="cls-3" d="M676.18,54.58l.07,43.35a10,10,0,0,1-10,10l-105.1.19a10,10,0,0,1-10-9.94l-.07-43.34V51l0-14.8a9.74,9.74,0,0,1,9.8-9.88l84.9-.15V22.62l-84.9.15a13.25,13.25,0,0,0-13.37,13.45l0,18.59,0,14.23.05,29.11a13.56,13.56,0,0,0,13.6,13.49l105.09-.19a13.56,13.56,0,0,0,13.56-13.53l-.05-29.11,0-12.55V54.58Z"/><polygon class="cls-4" points="676.16 45.69 679.74 45.69 679.7 22.57 656.46 22.61 656.47 26.16 676.13 26.13 676.16 45.69"/><path class="cls-3" d="M571.23,47.67h5.19v3h.06q.64-3.54,9.65-3.54c3.58,0,6.29.74,8.12,2.2A6.87,6.87,0,0,1,597,54.91V66.25a11.39,11.39,0,0,1-.74,4.27,7.44,7.44,0,0,1-1.89,2.85,7.63,7.63,0,0,1-2.9,1.54,19.07,19.07,0,0,1-3.65.74c-1.09.11-2.42.17-4,.17a17.34,17.34,0,0,1-4.71-.6,3.89,3.89,0,0,1-2.66-1.74V87.1h-5.25Zm17.38,24.24a3.66,3.66,0,0,0,2.31-1.56,6.77,6.77,0,0,0,.7-3.48V56.73a8,8,0,0,0-.7-3.81,3.52,3.52,0,0,0-2.31-1.68,19.25,19.25,0,0,0-4.71-.43,18.07,18.07,0,0,0-4.61.43,3.3,3.3,0,0,0-2.16,1.65,8.58,8.58,0,0,0-.65,3.84V66.87a7,7,0,0,0,.68,3.48,3.47,3.47,0,0,0,2.25,1.56,18.18,18.18,0,0,0,4.55.43A18.92,18.92,0,0,0,588.61,71.91Z"/><path class="cls-3" d="M607.54,75.08a5.29,5.29,0,0,1-3.15-2.62,12.07,12.07,0,0,1-1-5.42,10.64,10.64,0,0,1,.91-4.87,5.15,5.15,0,0,1,3.1-2.48,20.42,20.42,0,0,1,6.22-.74h8.47V54.57a3.92,3.92,0,0,0-.61-2.37,3.44,3.44,0,0,0-2-1.17,19.65,19.65,0,0,0-4.17-.34,76,76,0,0,0-9.71.69V47.62q5.79-.52,10.46-.52a26.65,26.65,0,0,1,7.25.72,5,5,0,0,1,3.22,2.47,13,13,0,0,1,.87,5.47V75.25H622.3V72.63c-.43,2.12-3.27,3.19-8.53,3.19A20.49,20.49,0,0,1,607.54,75.08Zm7.1-2.62a25.53,25.53,0,0,0,4.85-.4c1.76-.34,2.63-1.14,2.63-2.4V62.14H614a12.76,12.76,0,0,0-3.62.37,2.18,2.18,0,0,0-1.46,1.4,10.91,10.91,0,0,0-.36,3.31,9.62,9.62,0,0,0,.41,3.16A2.7,2.7,0,0,0,610.43,72a7.8,7.8,0,0,0,3.16.49Z"/><path class="cls-3" d="M643.22,75.65l-10.93-28H638l7.89,22.51H646l7.13-22.51h5.32L644.27,87.1h-5.49Z"/><rect class="cls-5" x="341.48" y="182.87" width="0.89" height="0.59" transform="translate(683.85 366.32) rotate(-180)"/><text class="cls-6" transform="translate(705.88 111.79)">V <tspan class="cls-7" x="46.08" y="0">2</tspan><tspan class="cls-8" x="73.82" y="0">.</tspan><tspan x="83.47" y="0">0</tspan></text></g></g></svg>