<svg xmlns="http://www.w3.org/2000/svg" viewBox="0 0 920.7 248.46"><defs><style>.cls-1{fill:#8be9c5;}.cls-2{fill:#6967bd;}.cls-3{fill:#8b76fa;}.cls-4{fill:#83daa3;}.cls-5{fill:#573b1c;}</style></defs><title>Recurso 1</title><g id="Capa_2" data-name="Capa 2"><g id="Capa_1-2" data-name="Capa 1"><rect class="cls-1" x="343.36" width="1.96" height="1.31"/><rect class="cls-1" x="457.44" y="128.84" width="1.2" height="0.8" transform="translate(916.07 258.48) rotate(-180)"/><rect class="cls-1" x="394.19" y="48.78" width="1.19" height="0.8"/><polygon class="cls-2" points="138.05 31.67 97.07 31.67 97.07 148.24 179.87 148.24 179.87 118.69 138.05 118.69 138.05 31.67"/><polygon class="cls-2" points="543.46 148.24 502.46 148.24 502.46 31.67 585.27 31.67 585.27 61.21 543.46 61.21 543.46 148.24"/><rect class="cls-2" x="193.8" y="31.67" width="41.02" height="116.57"/><polygon class="cls-2" points="254.67 31.67 254.67 148.24 295.67 148.24 295.67 60.7 322.25 60.7 322.25 148.24 363.26 148.24 363.26 31.67 254.67 31.67"/><polygon class="cls-2" points="708.83 148.24 708.83 31.67 667.82 31.67 667.82 119.19 641.25 119.19 641.25 31.67 600.24 31.67 600.24 148.24 708.83 148.24"/><path class="cls-2" d="M433.54,29.29c-38.39,0-55.4,20.23-55.4,60v.44c0,41.37,18.16,60.91,61.59,60.91,15.41,0,29-2.09,40.67-6l-3.68-25a115.79,115.79,0,0,1-29.41,3.92c-23.88,0-31.69-6.13-33.6-23.11H485V82.13C485,47,467.78,29.29,433.54,29.29ZM434,56.62c12.28,0,17.15,7.58,17.44,22.91H413.53C414.83,63.64,420.91,56.62,434,56.62Z"/><polygon class="cls-2" points="0 163.2 0 204.24 41.03 204.24 41.03 245.27 82.07 245.27 82.07 163.18 0 163.2"/><path class="cls-3" d="M915.75,73.92l.11,58.7a13.53,13.53,0,0,1-13.53,13.5L760,146.37a13.52,13.52,0,0,1-13.57-13.45l-.1-58.7V69.08l0-20a13.19,13.19,0,0,1,13.28-13.38l115-.2V30.64l-115,.2a18,18,0,0,0-18.11,18.21l0,25.18,0,19.27.07,39.43A18.34,18.34,0,0,0,760,151.19l142.34-.25a18.37,18.37,0,0,0,18.36-18.33l-.07-39.42,0-17V73.91Z"/><polygon class="cls-4" points="915.73 61.88 920.57 61.87 920.52 30.56 889.05 30.61 889.06 35.43 915.68 35.39 915.73 61.88"/><path class="cls-3" d="M773.61,64.57h7v4h.08q.87-4.78,13-4.79c4.86,0,8.52,1,11,3a9.33,9.33,0,0,1,3.71,7.6V89.72a15.44,15.44,0,0,1-1,5.78A9.82,9.82,0,0,1,805,99.36a10.11,10.11,0,0,1-3.91,2.09,25.42,25.42,0,0,1-4.95,1c-1.48.15-3.27.23-5.38.23a23.47,23.47,0,0,1-6.37-.81c-1.93-.54-3.13-1.32-3.6-2.35V118h-7.13Zm23.55,32.82a4.92,4.92,0,0,0,3.12-2.12,9.08,9.08,0,0,0,1-4.7V76.83a10.88,10.88,0,0,0-1-5.17,4.75,4.75,0,0,0-3.12-2.27,26.23,26.23,0,0,0-6.37-.58,24.64,24.64,0,0,0-6.25.58,4.45,4.45,0,0,0-2.93,2.24,11.58,11.58,0,0,0-.87,5.2V90.57a9.45,9.45,0,0,0,.91,4.7,4.74,4.74,0,0,0,3,2.12,24.87,24.87,0,0,0,6.18.58A25.77,25.77,0,0,0,797.16,97.39Z"/><path class="cls-3" d="M822.8,101.68a7.18,7.18,0,0,1-4.28-3.55,16.61,16.61,0,0,1-1.3-7.33,14.47,14.47,0,0,1,1.23-6.6,7,7,0,0,1,4.19-3.36,27.53,27.53,0,0,1,8.43-1h11.47V73.9a5.26,5.26,0,0,0-.83-3.2,4.62,4.62,0,0,0-2.77-1.58,25.85,25.85,0,0,0-5.66-.47,103.27,103.27,0,0,0-13.13.93V64.49q7.83-.7,14.16-.7a36.19,36.19,0,0,1,9.82,1,6.72,6.72,0,0,1,4.35,3.35q1.18,2.4,1.19,7.41v26.39h-6.89V98.36q-.87,4.32-11.55,4.32A27.85,27.85,0,0,1,822.8,101.68Zm9.61-3.55a34,34,0,0,0,6.57-.54c2.38-.47,3.56-1.55,3.56-3.24V84.16h-11a17.16,17.16,0,0,0-4.9.5,2.93,2.93,0,0,0-2,1.9,14.89,14.89,0,0,0-.48,4.47,12.86,12.86,0,0,0,.56,4.28,3.62,3.62,0,0,0,2,2.16,10.6,10.6,0,0,0,4.27.66Z"/><path class="cls-3" d="M871.11,102.45,856.32,64.57h7.75L874.75,95h.16l9.66-30.47h7.2L872.54,118H865.1Z"/><rect class="cls-5" x="462.47" y="247.66" width="1.2" height="0.8" transform="translate(926.14 496.11) rotate(-180)"/></g></g></svg>